<svg xmlns="http://www.w3.org/2000/svg" xmlns:xlink="http://www.w3.org/1999/xlink" viewBox="0,0,256,256" width="120px" height="120px" fill-rule="nonzero"><defs><linearGradient x1="8.32" y1="28.647" x2="16.937" y2="23.796" gradientUnits="userSpaceOnUse" id="color-1"><stop offset="0" stop-color="#ac46f9"></stop><stop offset="1" stop-color="#000000"></stop></linearGradient><linearGradient x1="9.733" y1="19.377" x2="6.541" y2="5.717" gradientUnits="userSpaceOnUse" id="color-2"><stop offset="0" stop-color="#ac46f9"></stop><stop offset="1" stop-color="#000000"></stop></linearGradient><linearGradient x1="15.898" y1="15.397" x2="28.217" y2="21.461" gradientUnits="userSpaceOnUse" id="color-3"><stop offset="0" stop-color="#ac46f9"></stop><stop offset="1" stop-color="#000000"></stop></linearGradient></defs><g fill="none" fill-rule="nonzero" stroke="none" stroke-width="1" stroke-linecap="butt" stroke-linejoin="miter" stroke-miterlimit="10" stroke-dasharray="" stroke-dashoffset="0" font-family="none" font-weight="none" font-size="none" text-anchor="none" style="mix-blend-mode: normal"><g transform="scale(6.4,6.4)"><path d="M14.019,22.989l-10.019,5.862v4.678l9.672,-5.652z" fill="url(#color-1)"></path><path d="M9.112,9.731l-4.136,2.082c0.01,2.908 0.889,10.549 8.698,16.05l0.349,-4.918c-3.582,-3.107 -5.773,-8.666 -4.911,-13.214z" fill="url(#color-2)"></path><path d="M23.697,17.112l-14.585,-7.381l-4.136,2.082c4.024,2.187 15.7,8.261 15.7,8.261z" fill="url(#color-3)"></path><path d="M33.97,13.9l3.03,-3.9l-4.714,-0.268c-1.377,-1.667 -3.46,-2.732 -5.786,-2.732c-4.126,0 -7.483,3.349 -7.499,7.472h-0.001c0.053,1.879 0.628,3.549 1.681,5.624l3,-2.968c-0.543,-0.958 -0.686,-1.83 -0.681,-2.628c0,-1.93 1.57,-3.5 3.5,-3.5c5.1,0 3.252,7.227 2.938,8.642c-1.053,4.073 -3.329,7.477 -6.463,9.503c-2.811,1.816 -6.669,2.517 -10.929,2.104c-1.705,0.991 -3.971,2.299 -5.399,3.072c3.006,0.743 6.045,1.05 8.217,1.05c4.581,0 7.955,-1.362 10.282,-2.866c7.568,-4.89 9.188,-14.042 8.824,-18.605z" fill="#ac46f9"></path></g></g></svg>